<svg width="36" height="36" viewBox="0 0 36 36" fill="none" xmlns="http://www.w3.org/2000/svg">
<path d="M18 0.75C8.47417 0.75 0.75 8.47417 0.75 18C0.75 27.5258 8.47417 35.25 18 35.25C19.5908 35.25 20.875 33.9658 20.875 32.375C20.875 31.6275 20.5875 30.9567 20.1275 30.4392C19.6867 29.9408 19.3992 29.27 19.3992 28.5417C19.3992 26.9508 20.6833 25.6667 22.2742 25.6667H25.6667C30.9567 25.6667 35.25 21.3733 35.25 16.0833C35.25 7.61167 27.5258 0.75 18 0.75ZM7.45833 18C5.8675 18 4.58333 16.7158 4.58333 15.125C4.58333 13.5342 5.8675 12.25 7.45833 12.25C9.04917 12.25 10.3333 13.5342 10.3333 15.125C10.3333 16.7158 9.04917 18 7.45833 18ZM13.2083 10.3333C11.6175 10.3333 10.3333 9.04917 10.3333 7.45833C10.3333 5.8675 11.6175 4.58333 13.2083 4.58333C14.7992 4.58333 16.0833 5.8675 16.0833 7.45833C16.0833 9.04917 14.7992 10.3333 13.2083 10.3333ZM22.7917 10.3333C21.2008 10.3333 19.9167 9.04917 19.9167 7.45833C19.9167 5.8675 21.2008 4.58333 22.7917 4.58333C24.3825 4.58333 25.6667 5.8675 25.6667 7.45833C25.6667 9.04917 24.3825 10.3333 22.7917 10.3333ZM28.5417 18C26.9508 18 25.6667 16.7158 25.6667 15.125C25.6667 13.5342 26.9508 12.25 28.5417 12.25C30.1325 12.25 31.4167 13.5342 31.4167 15.125C31.4167 16.7158 30.1325 18 28.5417 18Z" fill="#EFEFEF"/>
</svg>
